<svg width="167" height="38" viewBox="0 0 167 38" fill="none" xmlns="http://www.w3.org/2000/svg">
<mask id="mask0_13549_89378" style="mask-type:luminance" maskUnits="userSpaceOnUse" x="55" y="0" width="13" height="15">
<path d="M55.4023 0H67.1927V14.9791H55.4023V0Z" fill="white"/>
</mask>
<g mask="url(#mask0_13549_89378)">
<path d="M55.5038 10.1085C55.4424 10.125 55.4061 10.1865 55.4215 10.2511C55.4299 10.2931 55.4634 10.3291 55.5038 10.3396C56.2435 10.5481 57.6071 11.0627 58.4416 12.1955C59.0194 12.9831 59.42 13.9043 59.6084 14.8825C59.621 14.947 59.6796 14.989 59.741 14.977C59.7842 14.9665 59.8149 14.9335 59.8261 14.8915C60.0355 14.0978 60.4946 12.7161 61.2734 12.0169C61.8903 11.4633 63.4324 10.9712 64.1861 10.7567C64.2447 10.7372 64.2824 10.6711 64.2628 10.6096C64.2545 10.5706 64.2238 10.5376 64.1861 10.5286C63.4199 10.3066 61.8344 9.73345 61.1603 8.66223C60.556 7.70503 60.2546 6.63981 60.1192 6.03819C60.1038 5.97217 60.0424 5.93617 59.981 5.95267C59.9433 5.96317 59.9126 5.99168 59.9043 6.03069C59.7005 6.75683 59.2413 8.10861 58.5547 8.66223C57.4898 9.5219 56.2058 9.93299 55.5038 10.1085ZM61.8316 4.08778C61.794 4.09679 61.773 4.13579 61.7814 4.1748C61.7884 4.20181 61.8065 4.22131 61.8316 4.22731C62.2838 4.35484 63.1184 4.6699 63.6264 5.36305C63.9795 5.84615 64.2238 6.40876 64.3368 7.00739C64.3438 7.04789 64.3801 7.0734 64.4178 7.0629C64.4415 7.0569 64.4638 7.03739 64.4694 7.01189C64.5992 6.52579 64.8755 5.67961 65.3528 5.25353C65.7297 4.91446 66.6745 4.61439 67.1365 4.48087C67.1727 4.47186 67.1951 4.42835 67.1853 4.39385C67.1797 4.36684 67.1602 4.35034 67.1365 4.34134C66.6675 4.20481 65.6976 3.85524 65.2858 3.2011C64.916 2.61598 64.7318 1.96335 64.648 1.59577C64.6397 1.55676 64.602 1.53426 64.5657 1.54326C64.5406 1.55076 64.5224 1.57027 64.5155 1.59277C64.3898 2.03836 64.1121 2.86353 63.6906 3.2011C63.0472 3.72921 62.2615 3.97976 61.8316 4.08778ZM56.6831 1.70679C56.658 1.71279 56.6427 1.7398 56.6496 1.76531C56.6524 1.78181 56.665 1.79531 56.6831 1.80131C56.9846 1.88533 57.5359 2.09387 57.875 2.55597C58.1095 2.87553 58.2714 3.25061 58.3495 3.64819C58.3551 3.6737 58.376 3.6902 58.4012 3.6872C58.4193 3.6827 58.4319 3.6707 58.4347 3.65119C58.5212 3.32863 58.7054 2.76901 59.0236 2.48245C59.272 2.25741 59.9001 2.05787 60.2057 1.97085C60.2295 1.96335 60.242 1.93784 60.2364 1.91234C60.2336 1.89583 60.2211 1.88233 60.2057 1.87933C59.8945 1.78781 59.2511 1.55676 58.9776 1.12017C58.7305 0.733093 58.6105 0.299504 58.5547 0.0519521C58.5491 0.026447 58.524 0.00994357 58.5003 0.017445C58.4849 0.0204454 58.4723 0.032448 58.4654 0.0489515C58.383 0.346013 58.1974 0.892125 57.9183 1.11717C57.4898 1.46524 56.9692 1.63478 56.6831 1.70679Z" fill="#FADB5E"/>
</g>
<path d="M0 16.6858H4.52047V18.0016C4.52047 18.1321 4.51768 18.2536 4.51349 18.3647C4.50651 18.4727 4.50093 18.5687 4.49255 18.6542C4.48558 18.7607 4.47581 18.8553 4.46464 18.9408H4.52047C4.67957 18.6752 4.88194 18.3917 5.12896 18.0871C5.37739 17.7825 5.67326 17.5005 6.01519 17.2454C6.35713 16.9859 6.7479 16.7713 7.19032 16.6003C7.63274 16.4293 8.12958 16.3438 8.68086 16.3438C9.57546 16.3438 10.3598 16.5523 11.0325 16.9709C11.7052 17.3895 12.2272 18.0286 12.5984 18.8853H12.6542C12.8385 18.5717 13.0799 18.2641 13.3772 17.9581C13.6731 17.6505 14.0136 17.379 14.3988 17.1419C14.784 16.9034 15.2083 16.7113 15.6702 16.5658C16.1308 16.4188 16.6234 16.3438 17.1482 16.3438C17.7832 16.3438 18.3777 16.4443 18.9318 16.6423C19.4873 16.8419 19.9688 17.1644 20.3735 17.6085C20.781 18.0496 21.1034 18.6302 21.3393 19.3504C21.5751 20.0675 21.6924 20.9467 21.6924 21.9864V31.7579H16.9849V22.8281C16.9849 22.552 16.9695 22.297 16.9374 22.0629C16.9067 21.8304 16.8537 21.6308 16.7742 21.4643C16.6946 21.2978 16.583 21.1657 16.4406 21.0712C16.2996 20.9752 16.1182 20.9272 15.8963 20.9272C15.5251 20.9272 15.1943 20.9977 14.9068 21.1357C14.6179 21.2723 14.3681 21.4688 14.1559 21.7209C13.9438 21.9759 13.768 22.276 13.6312 22.6225C13.493 22.9706 13.3897 23.3532 13.3172 23.7718C13.2558 24.0388 13.2209 24.3224 13.2097 24.621C13.2027 24.921 13.1985 25.2226 13.1985 25.5271V31.7579H8.49384V22.8281C8.49384 22.552 8.47849 22.297 8.44639 22.0629C8.41429 21.8304 8.35847 21.6308 8.27892 21.4643C8.19937 21.2978 8.08911 21.1657 7.94536 21.0712C7.8044 20.9752 7.62436 20.9272 7.40525 20.9272C7.03959 20.9272 6.71441 20.9947 6.43249 21.1267C6.14778 21.2618 5.90215 21.4478 5.6928 21.6864C5.48625 21.9234 5.31319 22.2115 5.17642 22.549C5.03825 22.8896 4.93078 23.2572 4.85123 23.6563C4.78843 23.9323 4.74935 24.2324 4.73121 24.5579C4.71307 24.882 4.7033 25.2061 4.7033 25.5271V31.7579H0V16.6858Z" fill="#05A6E8"/>
<path d="M23.9219 27.257C23.9219 26.5248 24.0712 25.8947 24.3713 25.3651C24.6727 24.8355 25.0649 24.3899 25.5478 24.0283C26.0321 23.6668 26.575 23.3787 27.1765 23.1642C27.7808 22.9511 28.3823 22.7846 28.9838 22.6646C29.5882 22.546 30.1618 22.468 30.7047 22.4305C31.2504 22.39 31.7039 22.3705 32.0668 22.3705H32.2538V22.1019C32.2538 21.7854 32.2008 21.5198 32.0947 21.3068C31.9887 21.0937 31.8421 20.9227 31.6537 20.7937C31.4681 20.6646 31.2504 20.5701 30.9991 20.5131C30.7465 20.4561 30.4744 20.4276 30.1799 20.4276C29.7291 20.4276 29.2825 20.5041 28.8373 20.6571C28.3949 20.8087 27.9916 20.9752 27.6301 21.1567C27.2016 21.3653 26.7955 21.6038 26.4061 21.8709L24.7732 18.3002C25.2491 17.9386 25.7934 17.6145 26.4061 17.3265C26.9295 17.0789 27.5505 16.8539 28.2651 16.6513C28.9825 16.4458 29.7766 16.3438 30.6447 16.3438C31.63 16.3438 32.5148 16.4848 33.2992 16.7668C34.0835 17.0459 34.745 17.4495 35.2851 17.9791C35.8267 18.5072 36.2398 19.1493 36.5259 19.9055C36.8134 20.6646 36.9585 21.5243 36.9585 22.486V31.7579H32.6669V30.8577C32.6669 30.7362 32.6683 30.6177 32.6711 30.5022C32.6767 30.3866 32.6837 30.2846 32.6907 30.1991C32.7018 30.0971 32.7116 30.0026 32.7186 29.914H32.6669C32.4367 30.3356 32.1394 30.7017 31.7779 31.0153C31.4681 31.2913 31.0592 31.5434 30.5539 31.7714C30.0473 32.0025 29.4277 32.1165 28.6936 32.1165C28.0362 32.1165 27.4193 32.004 26.8388 31.7804C26.2582 31.5554 25.7516 31.2313 25.3217 30.8097C24.8918 30.3866 24.5513 29.8735 24.3001 29.2719C24.0475 28.6718 23.9219 27.9997 23.9219 27.257ZM28.667 26.9869C28.667 27.338 28.7703 27.6351 28.9769 27.8796C29.1848 28.1227 29.524 28.2427 29.9929 28.2427C30.2957 28.2427 30.586 28.1617 30.8638 27.9997C31.1443 27.8376 31.3899 27.6276 31.6021 27.3725C31.8142 27.116 31.9845 26.8309 32.1115 26.5173C32.2399 26.2023 32.3055 25.8917 32.3055 25.5872V25.2571H31.8686C31.4974 25.2571 31.122 25.2901 30.741 25.3516C30.3586 25.4116 30.0138 25.5121 29.7068 25.6502C29.4025 25.7867 29.1527 25.9652 28.9559 26.1843C28.7633 26.4048 28.667 26.6719 28.667 26.9869Z" fill="#05A6E8"/>
<path d="M41.9667 32.7286C42.3059 32.9102 42.6869 33.0722 43.1111 33.2147C43.4656 33.3393 43.8829 33.4503 44.3588 33.5433C44.8376 33.6393 45.3581 33.6888 45.9164 33.6888C46.3434 33.6888 46.751 33.6393 47.1404 33.5433C47.5297 33.4503 47.8731 33.2927 48.1689 33.0737C48.4648 32.8547 48.7035 32.5576 48.8849 32.1855C49.0677 31.8149 49.1584 31.3498 49.1584 30.7887V30.3026C49.1584 30.2546 49.1584 30.1991 49.1584 30.1391C49.1584 30.0776 49.164 30.0176 49.1752 29.9606C49.1752 29.8915 49.178 29.8195 49.1864 29.743H49.1347C48.716 30.2666 48.2303 30.6597 47.6763 30.9208C47.1222 31.1833 46.4383 31.3138 45.6233 31.3138C44.5682 31.3138 43.6457 31.1008 42.853 30.6732C42.0602 30.2441 41.4001 29.677 40.8712 28.9734C40.3436 28.2682 39.9486 27.461 39.6863 26.5519C39.4267 25.6412 39.2969 24.705 39.2969 23.7418C39.2969 22.7906 39.4253 21.8694 39.6821 20.9782C39.9389 20.087 40.3283 19.2994 40.8502 18.6167C41.375 17.9311 42.0309 17.3805 42.8181 16.9679C43.6066 16.5523 44.5333 16.3438 45.5982 16.3438C46.236 16.3438 46.7914 16.4203 47.2632 16.5748C47.7377 16.7263 48.134 16.8899 48.455 17.0699C48.8179 17.2904 49.1319 17.5335 49.3971 17.8006H49.4766C49.4683 17.772 49.4641 17.7375 49.4641 17.697C49.4571 17.67 49.4529 17.634 49.4529 17.5905C49.4529 17.5485 49.4529 17.5035 49.4529 17.454V16.6858H53.8631V30.3881C53.8631 31.3018 53.7571 32.1225 53.5449 32.8517C53.3328 33.5808 53.0411 34.2229 52.6671 34.778C52.2958 35.3362 51.8548 35.8133 51.344 36.2093C50.836 36.6039 50.2875 36.928 49.7027 37.1785C49.1208 37.4321 48.5067 37.6151 47.8633 37.7292C47.2213 37.8432 46.5821 37.9002 45.9443 37.9002C45.4726 37.9002 44.9953 37.8672 44.5138 37.8027C44.0309 37.7367 43.5605 37.6406 43.1 37.5161C42.6394 37.3931 42.1984 37.2506 41.7769 37.0885C41.3554 36.9265 40.9758 36.7495 40.6409 36.5589L41.9667 32.7286ZM46.7398 27.098C47.0413 27.098 47.3427 27.0515 47.6456 26.9569C47.947 26.8639 48.2178 26.6914 48.455 26.4363C48.6937 26.1828 48.8891 25.8467 49.0398 25.4236C49.1905 25.0005 49.2659 24.4589 49.2659 23.8018C49.2659 23.1357 49.1905 22.5925 49.0398 22.174C48.8891 21.7539 48.6867 21.4238 48.4355 21.1867C48.1829 20.9482 47.894 20.7832 47.566 20.6916C47.2367 20.6016 46.8947 20.5551 46.5402 20.5551C46.1243 20.5551 45.7615 20.6316 45.4516 20.7862C45.1418 20.9377 44.8822 21.1462 44.6729 21.4133C44.4663 21.6819 44.3086 22.0014 44.1997 22.375C44.0937 22.7456 44.0406 23.1432 44.0406 23.5707C44.0406 24.0388 44.0909 24.4874 44.1928 24.9165C44.296 25.3426 44.4579 25.7192 44.6812 26.0432C44.9031 26.3688 45.1837 26.6269 45.5228 26.8174C45.8647 27.0049 46.2709 27.098 46.7398 27.098Z" fill="#05A6E8"/>
<mask id="mask1_13549_89378" style="mask-type:luminance" maskUnits="userSpaceOnUse" x="57" y="16" width="6" height="17">
<path d="M57.2109 16.125H62.2129V32.0583H57.2109V16.125Z" fill="white"/>
</mask>
<g mask="url(#mask1_13549_89378)">
<path d="M57.4035 10.8438H62.0007V14.7866H57.4035V10.8438ZM57.3477 16.6875H62.0523V31.7596H57.3477V16.6875Z" fill="#05A6E8"/>
</g>
<path d="M64.5039 24.2159C64.5039 23.2047 64.6742 22.225 65.0161 21.2768C65.358 20.3286 65.8605 19.4914 66.5262 18.7652C67.1905 18.0376 68.0084 17.4525 68.9769 17.0099C69.9469 16.5658 71.0606 16.3438 72.3195 16.3438C73.2783 16.3438 74.1073 16.4638 74.8065 16.7023C75.5057 16.9394 76.0863 17.2004 76.5469 17.484C77.087 17.8171 77.5378 18.1936 77.902 18.6122L75.9063 22.0164C75.6411 21.7494 75.3368 21.5048 74.9935 21.2858C74.699 21.1042 74.3501 20.9377 73.9482 20.7862C73.5448 20.6316 73.1038 20.5551 72.6251 20.5551C72.0655 20.5551 71.5756 20.6601 71.1555 20.8717C70.7354 21.0832 70.3865 21.3578 70.106 21.6954C69.8283 22.0314 69.6189 22.4155 69.4821 22.8446C69.344 23.2722 69.2756 23.7088 69.2756 24.1559C69.2756 24.606 69.3454 25.053 69.4863 25.4971C69.6287 25.9382 69.8464 26.3388 70.1381 26.6974C70.4312 27.0545 70.7968 27.344 71.2351 27.5691C71.6733 27.7911 72.1897 27.9021 72.7842 27.9021C73.2713 27.9021 73.7458 27.8091 74.2064 27.6246C74.6669 27.4355 75.0786 27.2285 75.4415 27.0004C75.8686 26.7334 76.2621 26.4273 76.6264 26.0868L78.343 29.614C77.9076 30.0821 77.394 30.5022 76.8009 30.8742C76.2942 31.1878 75.6662 31.4744 74.9181 31.7324C74.1701 31.989 73.3048 32.1165 72.3195 32.1165C71.0718 32.1165 69.9608 31.9005 68.9895 31.4684C68.0195 31.0318 67.2031 30.4512 66.5387 29.7205C65.873 28.9929 65.3664 28.1527 65.0203 27.2015C64.6756 26.2473 64.5039 25.2526 64.5039 24.2159Z" fill="#05A6E8"/>
<path d="M85.707 27.257C85.707 26.5248 85.8564 25.8947 86.1564 25.3651C86.4579 24.8355 86.8501 24.3899 87.3329 24.0283C87.8172 23.6668 88.3601 23.3787 88.9617 23.1642C89.566 22.9511 90.1675 22.7846 90.769 22.6646C91.3733 22.546 91.9469 22.468 92.4898 22.4305C93.0355 22.39 93.4891 22.3705 93.852 22.3705H94.039V22.1019C94.039 21.7854 93.9859 21.5198 93.8799 21.3068C93.7738 21.0937 93.6273 20.9227 93.4389 20.7937C93.2532 20.6646 93.0355 20.5701 92.7843 20.5131C92.5317 20.4561 92.2595 20.4276 91.9651 20.4276C91.5143 20.4276 91.0677 20.5041 90.6225 20.6571C90.18 20.8087 89.7767 20.9752 89.4138 21.1567C88.9868 21.3653 88.5806 21.6038 88.1913 21.8709L86.5584 18.3002C87.0343 17.9386 87.5786 17.6145 88.1913 17.3265C88.7146 17.0789 89.3357 16.8539 90.0503 16.6513C90.7676 16.4458 91.5617 16.3438 92.4298 16.3438C93.4151 16.3438 94.3 16.4848 95.0843 16.7668C95.8687 17.0459 96.5302 17.4495 97.0703 17.9791C97.6118 18.5072 98.0249 19.1493 98.311 19.9055C98.5985 20.6646 98.7437 21.5243 98.7437 22.486V31.7579H94.4521V30.8577C94.4521 30.7362 94.4535 30.6177 94.4563 30.5022C94.4619 30.3866 94.4688 30.2846 94.4758 30.1991C94.487 30.0971 94.4968 30.0026 94.5037 29.914H94.4521C94.2218 30.3356 93.9245 30.7017 93.5631 31.0153C93.2532 31.2913 92.8443 31.5434 92.3391 31.7714C91.8325 32.0025 91.2128 32.1165 90.4787 32.1165C89.8214 32.1165 89.2045 32.004 88.6239 31.7804C88.0433 31.5554 87.5367 31.2313 87.1055 30.8097C86.677 30.3866 86.3365 29.8735 86.0852 29.2719C85.8326 28.6718 85.707 27.9997 85.707 27.257ZM90.4522 26.9869C90.4522 27.338 90.5555 27.6351 90.762 27.8796C90.97 28.1227 91.3091 28.2427 91.7781 28.2427C92.0809 28.2427 92.3712 28.1617 92.6489 27.9997C92.9295 27.8376 93.1751 27.6276 93.3872 27.3725C93.5994 27.116 93.7696 26.8309 93.8966 26.5173C94.025 26.2023 94.0906 25.8917 94.0906 25.5872V25.2571H93.6538C93.2825 25.2571 92.9071 25.2901 92.5261 25.3516C92.1437 25.4116 91.799 25.5121 91.4919 25.6502C91.1877 25.7867 90.9379 25.9652 90.7411 26.1843C90.5485 26.4048 90.4522 26.6719 90.4522 26.9869Z" fill="#05A6E8"/>
<path d="M101.055 24.2019C101.055 23.0121 101.214 21.9319 101.532 20.9597C101.852 19.986 102.295 19.1563 102.863 18.4692C103.429 17.7836 104.104 17.2555 104.89 16.8849C105.676 16.5158 106.534 16.3298 107.463 16.3298C108.171 16.3298 108.759 16.3913 109.228 16.5128C109.699 16.6358 110.076 16.7739 110.361 16.9284C110.689 17.0979 110.946 17.299 111.131 17.53H111.183C111.174 17.47 111.17 17.404 111.17 17.329C111.163 17.272 111.159 17.2044 111.159 17.1249C111.159 17.0424 111.159 16.9524 111.159 16.8549V10.8281H115.875V31.7439H111.465V30.7447C111.465 30.6322 111.465 30.5257 111.465 30.4252C111.465 30.3216 111.469 30.2346 111.477 30.1596C111.477 30.0636 111.481 29.9766 111.488 29.9001H111.437C111.188 30.3216 110.873 30.6877 110.492 31.0013C110.165 31.2773 109.745 31.5294 109.232 31.7574C108.718 31.9885 108.101 32.1025 107.384 32.1025C106.425 32.1025 105.558 31.9105 104.782 31.5264C104.008 31.1408 103.345 30.5992 102.791 29.9031C102.237 29.2069 101.81 28.3742 101.508 27.4095C101.207 26.4418 101.055 25.3721 101.055 24.2019ZM105.803 24.2019C105.803 24.763 105.868 25.2731 106.002 25.7307C106.133 26.1868 106.322 26.5769 106.566 26.9009C106.809 27.225 107.099 27.4771 107.436 27.6526C107.772 27.8266 108.145 27.9136 108.552 27.9136C108.907 27.9136 109.248 27.8431 109.574 27.6991C109.902 27.5581 110.192 27.336 110.445 27.0375C110.699 26.7359 110.902 26.3503 111.056 25.8807C111.212 25.4081 111.29 24.8485 111.29 24.2019C111.29 23.7428 111.234 23.3002 111.123 22.8726C111.014 22.4435 110.846 22.0609 110.619 21.7249C110.393 21.3858 110.107 21.1127 109.761 20.9087C109.416 20.7032 109.014 20.6011 108.552 20.6011C108.181 20.6011 107.829 20.6807 107.496 20.8352C107.163 20.9927 106.872 21.2238 106.618 21.5283C106.365 21.8329 106.167 22.2095 106.022 22.6596C105.875 23.1067 105.803 23.6213 105.803 24.2019Z" fill="#05A6E8"/>
<path d="M119.359 16.6858H123.881V18.0016C123.881 18.1321 123.878 18.2536 123.873 18.3647C123.867 18.4727 123.862 18.5687 123.853 18.6542C123.845 18.7607 123.835 18.8553 123.825 18.9408H123.881C124.04 18.6752 124.243 18.3917 124.488 18.0871C124.737 17.7825 125.033 17.5005 125.375 17.2454C125.717 16.9859 126.107 16.7713 126.551 16.6003C126.994 16.4293 127.489 16.3438 128.04 16.3438C128.936 16.3438 129.719 16.5523 130.393 16.9709C131.066 17.3895 131.587 18.0286 131.958 18.8853H132.014C132.199 18.5717 132.441 18.2641 132.737 17.9581C133.034 17.6505 133.374 17.379 133.758 17.1419C134.145 16.9034 134.569 16.7113 135.03 16.5658C135.49 16.4188 135.983 16.3438 136.508 16.3438C137.144 16.3438 137.737 16.4443 138.291 16.6423C138.848 16.8419 139.328 17.1644 139.734 17.6085C140.142 18.0496 140.463 18.6302 140.7 19.3504C140.935 20.0675 141.053 20.9467 141.053 21.9864V31.7579H136.344V22.8281C136.344 22.552 136.329 22.297 136.297 22.0629C136.268 21.8304 136.213 21.6308 136.135 21.4643C136.055 21.2978 135.944 21.1657 135.8 21.0712C135.659 20.9752 135.479 20.9272 135.256 20.9272C134.884 20.9272 134.555 20.9977 134.268 21.1357C133.977 21.2723 133.727 21.4688 133.515 21.7209C133.303 21.9759 133.129 22.276 132.992 22.6225C132.854 22.9706 132.749 23.3532 132.678 23.7718C132.617 24.0388 132.58 24.3224 132.57 24.621C132.562 24.921 132.558 25.2226 132.558 25.5271V31.7579H127.855V22.8281C127.855 22.552 127.838 22.297 127.806 22.0629C127.775 21.8304 127.719 21.6308 127.64 21.4643C127.56 21.2978 127.448 21.1657 127.306 21.0712C127.165 20.9752 126.985 20.9272 126.766 20.9272C126.4 20.9272 126.075 20.9947 125.792 21.1267C125.509 21.2618 125.262 21.4478 125.054 21.6864C124.847 21.9234 124.674 22.2115 124.537 22.549C124.399 22.8896 124.29 23.2572 124.211 23.6563C124.149 23.9323 124.109 24.2324 124.092 24.5579C124.072 24.882 124.064 25.2061 124.064 25.5271V31.7579H119.359V16.6858Z" fill="#05A6E8"/>
<path d="M144.403 10.8281H149.001V14.7709H144.403V10.8281ZM144.348 16.6718H149.052V31.7439H144.348V16.6718Z" fill="#05A6E8"/>
<path d="M152.535 16.6858H157.056V18.0016C157.056 18.1321 157.053 18.2536 157.049 18.3647C157.042 18.4727 157.036 18.5687 157.028 18.6542C157.021 18.7607 157.011 18.8553 157.001 18.9408H157.056C157.215 18.6482 157.423 18.3497 157.679 18.0436C157.936 17.739 158.246 17.46 158.61 17.2064C158.972 16.9529 159.392 16.7473 159.869 16.5868C160.348 16.4248 160.899 16.3438 161.522 16.3438C162.229 16.3438 162.889 16.4398 163.501 16.6303C164.112 16.8178 164.644 17.1314 165.094 17.5695C165.547 18.0091 165.903 18.5897 166.162 19.3159C166.425 20.0405 166.556 20.9302 166.556 21.9864V31.7579H161.84V22.9301C161.84 22.216 161.713 21.7029 161.459 21.3923C161.206 21.0832 160.82 20.9272 160.298 20.9272C159.925 20.9272 159.589 20.9797 159.293 21.0847C158.996 21.1897 158.735 21.3383 158.51 21.5288C158.285 21.7194 158.09 21.9504 157.926 22.216C157.762 22.4815 157.626 22.7756 157.52 23.1011C157.332 23.6908 157.238 24.3524 157.238 25.0876V31.7579H152.535V16.6858Z" fill="#05A6E8"/>
</svg>
