<svg width="257" height="43" viewBox="0 0 257 43" fill="none" xmlns="http://www.w3.org/2000/svg">
<mask id="mask0_13549_89921" style="mask-type:luminance" maskUnits="userSpaceOnUse" x="38" y="15" width="70" height="21">
<path d="M38.2656 15.7656H107.085V35.9924H38.2656V15.7656Z" fill="white"/>
</mask>
<g mask="url(#mask0_13549_89921)">
<mask id="mask1_13549_89921" style="mask-type:luminance" maskUnits="userSpaceOnUse" x="38" y="16" width="70" height="20">
<path d="M47.9992 27.5741C47.9992 29.5953 46.2111 31.3187 43.1614 31.3187C40.1118 31.3187 38.4375 29.5718 38.4375 29.5718L40.1352 26.9067C40.1352 26.9067 41.4414 28.1015 43.138 28.1015C43.7348 28.1015 44.3081 27.9403 44.3081 27.5506C44.3081 26.5159 38.7822 26.4017 38.7822 22.5418C38.7822 20.3134 40.9149 18.9349 43.6433 18.9349C46.3728 18.9349 47.7939 20.291 47.7939 20.291L46.442 23.1162C46.442 23.1162 45.2942 22.151 43.6444 22.151C43.0488 22.151 42.4754 22.3122 42.4754 22.7254C42.4754 23.6212 48.0014 23.7601 48.0014 27.5741H47.9992ZM54.9373 26.1497V22.5194H57.4136V19.4176H54.9373V16.0156H51.0845V19.4176H49.457V22.5194H50.9696V26.6783C50.9696 30.6535 54.6149 31.1586 56.4955 31.1586C57.138 31.1586 57.5742 31.0903 57.5742 31.0903V27.6424C57.5742 27.6424 57.3678 27.6659 57.0477 27.6659C56.2903 27.6659 54.9384 27.4812 54.9384 26.1497H54.9373ZM72.4231 25.161C72.4231 28.8596 69.4426 31.3187 65.7281 31.3187C62.0148 31.3187 59.0343 28.8596 59.0343 25.161C59.0343 21.4623 62.0148 18.9338 65.7058 18.9338C69.3969 18.9338 72.4231 21.4388 72.4231 25.161ZM68.4108 25.161C68.4108 23.3682 67.1726 22.2428 65.727 22.2428C64.2814 22.2428 63.0455 23.3693 63.0455 25.161C63.0455 26.9526 64.2825 28.0097 65.727 28.0097C67.1715 28.0097 68.4108 26.9291 68.4108 25.161ZM77.6891 21.9438H77.6434C77.6434 21.9438 77.6891 21.5989 77.6891 21.2092V19.2104H73.8832V31.0443H77.8497V26.5641C77.8497 25.9202 77.9189 25.3928 78.0561 24.9549C78.6294 23.1857 80.1654 22.8878 81.1057 22.8878C81.5865 22.8878 81.9089 22.9561 81.9089 22.9561V19.0503C81.9089 19.0503 81.6791 19.0043 81.4504 19.0043C79.6847 19.0043 78.1944 20.3369 77.6902 21.9449L77.6891 21.9438ZM102.709 19.2104L101.218 24.7254C101.058 25.3681 100.828 26.4946 100.828 26.4946H100.782C100.782 26.4946 100.553 25.2987 100.347 24.6559L98.6038 19.2104H91.2352L89.7449 24.7254C89.5843 25.3681 89.3545 26.4946 89.3545 26.4946H89.3088C89.3088 26.4946 89.079 25.2987 88.8738 24.6559L87.1303 19.2104H82.6373L87.6579 30.8137L87.4281 31.3646C87.0154 32.3758 86.1677 32.5594 85.5241 32.5594C84.9518 32.5594 84.3093 32.1227 84.3093 32.1227L83.0489 35.0409C83.0489 35.0409 84.2424 35.8684 85.7996 35.8684C87.6791 35.8684 89.7438 34.9491 90.7299 32.3064L94.8961 21.0289L99.1292 30.8126L98.8994 31.3635C98.4878 32.3747 97.639 32.5583 96.9965 32.5583C96.4231 32.5583 95.7817 32.1216 95.7817 32.1216L94.5213 35.0398C94.5213 35.0398 95.7137 35.8673 97.2731 35.8673C99.1538 35.8673 101.217 34.9479 102.203 32.3052L107.041 19.2082H102.709V19.2104Z" fill="white"/>
</mask>
<g mask="url(#mask1_13549_89921)">
<path d="M38.4375 16.0156V35.8684H107.041V16.0156H38.4375Z" fill="url(#paint0_linear_13549_89921)"/>
</g>
</g>
<mask id="mask2_13549_89921" style="mask-type:luminance" maskUnits="userSpaceOnUse" x="4" y="6" width="30" height="26">
<path d="M4.85547 6.96875H33.1255V31.5336H4.85547V6.96875Z" fill="white"/>
</mask>
<g mask="url(#mask2_13549_89921)">
<mask id="mask3_13549_89921" style="mask-type:luminance" maskUnits="userSpaceOnUse" x="4" y="7" width="29" height="25">
<path d="M19.4264 7.4826C18.9077 6.96413 18.0689 6.96413 17.5502 7.4826L5.35609 19.7029C4.83964 20.2225 4.83964 21.0634 5.35609 21.583L10.9847 27.2223C11.5022 27.7419 12.3422 27.7419 12.8597 27.2223L20.6378 19.4285C21.0137 19.0523 21.5134 18.844 22.0455 18.8451H30.7616L19.4264 7.4826ZM22.0455 17.5137C21.1598 17.5137 20.3266 17.8586 19.7008 18.4868L11.9228 26.2817L6.2953 20.6424L18.4883 8.42434L27.5603 17.5148H22.0455V17.5137ZM32.0879 19.2326L21.77 8.89465L22.0042 8.6595C22.1336 8.53072 22.3444 8.53072 22.4727 8.6595L32.5564 18.7645C33.0751 19.283 33.0751 20.125 32.5564 20.6435L22.1012 31.1214C21.9774 31.2446 21.809 31.3151 21.6339 31.3151H11.4543C11.1587 31.3151 11.0103 30.9579 11.2189 30.7474L21.577 20.368C21.7008 20.2437 21.8692 20.1732 22.0455 20.1732H32.0879C32.3478 19.9134 32.3478 19.4935 32.0879 19.2337V19.2326Z" fill="white"/>
</mask>
<g mask="url(#mask3_13549_89921)">
<path d="M4.83984 6.96875V31.3175H33.0753V6.96875H4.83984Z" fill="url(#paint1_linear_13549_89921)"/>
</g>
</g>
<mask id="mask4_13549_89921" style="mask-type:luminance" maskUnits="userSpaceOnUse" x="163" y="7" width="11" height="12">
<path d="M163.887 7.03906H173.31V18.2191H163.887V7.03906Z" fill="white"/>
</mask>
<g mask="url(#mask4_13549_89921)">
<path d="M163.967 14.58C163.918 14.5923 163.889 14.6382 163.901 14.6863C163.908 14.7177 163.935 14.7446 163.967 14.7524C164.558 14.9081 165.648 15.2921 166.315 16.1376C166.777 16.7255 167.097 17.413 167.248 18.1431C167.258 18.1913 167.304 18.2226 167.354 18.2137C167.388 18.2058 167.413 18.1812 167.422 18.1498C167.589 17.5575 167.956 16.5262 168.578 16.0043C169.071 15.5911 170.304 15.2238 170.906 15.0637C170.953 15.0491 170.983 14.9999 170.968 14.954C170.961 14.9248 170.936 14.9002 170.906 14.8935C170.294 14.7278 169.027 14.3 168.488 13.5005C168.005 12.786 167.764 11.991 167.656 11.542C167.644 11.4927 167.595 11.4658 167.545 11.4781C167.515 11.486 167.491 11.5072 167.484 11.5364C167.321 12.0783 166.954 13.0873 166.405 13.5005C165.554 14.1421 164.528 14.4489 163.967 14.58ZM169.025 10.0862C168.994 10.0929 168.978 10.1221 168.984 10.1512C168.99 10.1713 169.004 10.1859 169.025 10.1904C169.386 10.2856 170.053 10.5207 170.459 11.0381C170.741 11.3986 170.936 11.8185 171.027 12.2653C171.032 12.2956 171.061 12.3146 171.091 12.3068C171.11 12.3023 171.128 12.2877 171.133 12.2687C171.236 11.9059 171.457 11.2743 171.839 10.9563C172.14 10.7032 172.895 10.4793 173.264 10.3796C173.293 10.3729 173.311 10.3404 173.303 10.3147C173.299 10.2945 173.283 10.2822 173.264 10.2755C172.89 10.1736 172.114 9.91266 171.785 9.42443C171.49 8.98771 171.342 8.5006 171.275 8.22625C171.269 8.19714 171.239 8.18034 171.21 8.18706C171.19 8.19266 171.175 8.20722 171.17 8.22401C171.069 8.55659 170.847 9.17248 170.51 9.42443C169.996 9.8186 169.368 10.0056 169.025 10.0862ZM164.91 8.30912C164.89 8.3136 164.877 8.33375 164.883 8.35279C164.885 8.36511 164.895 8.37519 164.91 8.37967C165.151 8.44237 165.591 8.59803 165.862 8.94292C166.05 9.18144 166.179 9.46138 166.241 9.75813C166.246 9.77717 166.263 9.78948 166.283 9.78724C166.297 9.78389 166.307 9.77493 166.31 9.76037C166.379 9.51961 166.526 9.10193 166.78 8.88805C166.979 8.72008 167.481 8.57115 167.725 8.5062C167.744 8.5006 167.754 8.48157 167.75 8.46253C167.747 8.45021 167.737 8.44013 167.725 8.4379C167.476 8.36959 166.962 8.19714 166.743 7.87128C166.546 7.58237 166.45 7.25875 166.405 7.07399C166.401 7.05495 166.381 7.04263 166.362 7.04823C166.35 7.05047 166.34 7.05943 166.334 7.07175C166.268 7.29347 166.12 7.70107 165.897 7.86904C165.554 8.12883 165.138 8.25537 164.91 8.30912Z" fill="#FADB5E"/>
</g>
<path d="M119.605 19.4897H123.218V20.4717C123.218 20.5692 123.216 20.6599 123.213 20.7427C123.207 20.8234 123.203 20.895 123.196 20.9589C123.191 21.0384 123.183 21.1089 123.174 21.1727H123.218C123.346 20.9745 123.507 20.7629 123.705 20.5356C123.903 20.3083 124.14 20.0977 124.413 19.9074C124.686 19.7136 124.999 19.5535 125.352 19.4259C125.706 19.2982 126.103 19.2344 126.544 19.2344C127.259 19.2344 127.885 19.39 128.423 19.7024C128.961 20.0149 129.378 20.4919 129.675 21.1313H129.719C129.867 20.8973 130.059 20.6677 130.297 20.4393C130.534 20.2097 130.806 20.007 131.114 19.8301C131.421 19.6521 131.761 19.5087 132.13 19.4001C132.498 19.2904 132.892 19.2344 133.311 19.2344C133.819 19.2344 134.294 19.3094 134.737 19.4572C135.181 19.6061 135.565 19.8469 135.889 20.1784C136.215 20.5076 136.472 20.9409 136.661 21.4784C136.849 22.0137 136.943 22.6699 136.943 23.4459V30.7391H133.181V24.0741C133.181 23.8681 133.168 23.6777 133.143 23.503C133.118 23.3295 133.076 23.1805 133.012 23.0562C132.948 22.9319 132.859 22.8334 132.745 22.7628C132.633 22.6912 132.488 22.6553 132.31 22.6553C132.014 22.6553 131.749 22.708 131.52 22.811C131.289 22.9129 131.089 23.0596 130.919 23.2477C130.75 23.4381 130.609 23.662 130.5 23.9207C130.39 24.1805 130.307 24.466 130.249 24.7785C130.2 24.9778 130.172 25.1894 130.163 25.4123C130.158 25.6362 130.154 25.8613 130.154 26.0886V30.7391H126.394V24.0741C126.394 23.8681 126.382 23.6777 126.356 23.503C126.331 23.3295 126.286 23.1805 126.222 23.0562C126.159 22.9319 126.071 22.8334 125.956 22.7628C125.843 22.6912 125.699 22.6553 125.524 22.6553C125.232 22.6553 124.972 22.7057 124.747 22.8043C124.519 22.9051 124.323 23.0439 124.155 23.222C123.99 23.3989 123.852 23.6139 123.743 23.8658C123.632 24.12 123.546 24.3944 123.483 24.6922C123.433 24.8983 123.401 25.1222 123.387 25.3652C123.372 25.6071 123.365 25.849 123.365 26.0886V30.7391H119.605V19.4897Z" fill="#05A6E8"/>
<path d="M138.73 27.3797C138.73 26.8333 138.85 26.363 139.09 25.9677C139.331 25.5724 139.644 25.2398 140.03 24.9699C140.417 24.7001 140.851 24.4851 141.332 24.3249C141.815 24.1659 142.295 24.0416 142.776 23.9521C143.259 23.8636 143.718 23.8054 144.152 23.7774C144.588 23.7471 144.95 23.7326 145.24 23.7326H145.39V23.5321C145.39 23.2959 145.347 23.0977 145.263 22.9386C145.178 22.7796 145.061 22.652 144.91 22.5557C144.762 22.4594 144.588 22.3888 144.387 22.3463C144.185 22.3037 143.968 22.2824 143.732 22.2824C143.372 22.2824 143.015 22.3396 142.659 22.4538C142.305 22.5669 141.983 22.6912 141.694 22.8267C141.352 22.9823 141.027 23.1604 140.716 23.3597L139.411 20.6946C139.791 20.4247 140.226 20.1828 140.716 19.9678C141.134 19.7831 141.631 19.6151 142.202 19.4639C142.775 19.3105 143.41 19.2344 144.104 19.2344C144.891 19.2344 145.598 19.3396 146.225 19.5502C146.852 19.7584 147.381 20.0597 147.812 20.4549C148.245 20.8491 148.575 21.3284 148.804 21.8928C149.034 22.4594 149.15 23.101 149.15 23.8188V30.7391H145.72V30.0672C145.72 29.9765 145.721 29.8881 145.723 29.8019C145.728 29.7156 145.733 29.6395 145.739 29.5757C145.748 29.4995 145.756 29.429 145.761 29.3629H145.72C145.536 29.6776 145.298 29.9508 145.009 30.1848C144.762 30.3909 144.435 30.579 144.031 30.7492C143.626 30.9216 143.131 31.0067 142.544 31.0067C142.019 31.0067 141.526 30.9228 141.062 30.7559C140.598 30.5879 140.193 30.3461 139.849 30.0314C139.506 29.7156 139.234 29.3327 139.033 28.8836C138.831 28.4357 138.73 27.934 138.73 27.3797ZM142.523 27.1782C142.523 27.4402 142.606 27.6619 142.771 27.8445C142.937 28.0259 143.208 28.1154 143.583 28.1154C143.825 28.1154 144.057 28.055 144.279 27.934C144.503 27.8131 144.699 27.6563 144.869 27.466C145.038 27.2745 145.174 27.0617 145.276 26.8277C145.379 26.5925 145.431 26.3607 145.431 26.1334V25.8871H145.082C144.785 25.8871 144.485 25.9117 144.181 25.9576C143.875 26.0024 143.599 26.0774 143.354 26.1804C143.111 26.2823 142.911 26.4156 142.754 26.5791C142.6 26.7437 142.523 26.943 142.523 27.1782Z" fill="#05A6E8"/>
<path d="M153.153 31.4636C153.424 31.5991 153.729 31.7201 154.068 31.8264C154.351 31.9194 154.685 32.0022 155.065 32.0717C155.448 32.1433 155.864 32.1803 156.31 32.1803C156.651 32.1803 156.977 32.1433 157.288 32.0717C157.6 32.0022 157.874 31.8847 158.11 31.7212C158.347 31.5577 158.538 31.336 158.683 31.0583C158.829 30.7817 158.901 30.4345 158.901 30.0157V29.6529C158.901 29.6171 158.901 29.5757 158.901 29.5309C158.901 29.4849 158.906 29.4402 158.915 29.3976C158.915 29.3461 158.917 29.2923 158.924 29.2352H158.882C158.548 29.626 158.16 29.9194 157.717 30.1143C157.274 30.3102 156.727 30.4077 156.076 30.4077C155.233 30.4077 154.495 30.2486 153.862 29.9295C153.228 29.6092 152.701 29.186 152.278 28.6608C151.856 28.1345 151.54 27.532 151.331 26.8534C151.123 26.1737 151.02 25.475 151.02 24.7561C151.02 24.0461 151.122 23.3586 151.327 22.6934C151.533 22.0283 151.844 21.4404 152.261 20.9309C152.68 20.4191 153.205 20.0082 153.834 19.7002C154.464 19.39 155.205 19.2344 156.056 19.2344C156.566 19.2344 157.01 19.2915 157.387 19.4068C157.766 19.5199 158.083 19.642 158.339 19.7764C158.629 19.941 158.88 20.1224 159.092 20.3217H159.156C159.149 20.3004 159.146 20.2747 159.146 20.2444C159.14 20.2243 159.137 20.1974 159.137 20.1649C159.137 20.1336 159.137 20.1 159.137 20.063V19.4897H162.661V29.7167C162.661 30.3987 162.577 31.0112 162.407 31.5554C162.238 32.0997 162.004 32.5789 161.706 32.9933C161.409 33.4098 161.056 33.7659 160.648 34.0615C160.242 34.356 159.804 34.5979 159.336 34.7849C158.871 34.9742 158.38 35.1108 157.866 35.1959C157.353 35.281 156.842 35.3235 156.332 35.3235C155.955 35.3235 155.574 35.2989 155.189 35.2508C154.803 35.2015 154.427 35.1298 154.059 35.0369C153.691 34.9451 153.339 34.8387 153.002 34.7177C152.665 34.5968 152.361 34.4647 152.094 34.3224L153.153 31.4636ZM156.968 27.261C157.209 27.261 157.45 27.2263 157.692 27.1558C157.933 27.0864 158.149 26.9576 158.339 26.7672C158.53 26.578 158.686 26.3271 158.806 26.0114C158.927 25.6956 158.987 25.2913 158.987 24.8009C158.987 24.3037 158.927 23.8983 158.806 23.5859C158.686 23.2723 158.524 23.026 158.324 22.8491C158.122 22.671 157.891 22.5478 157.629 22.4795C157.365 22.4123 157.092 22.3776 156.809 22.3776C156.476 22.3776 156.186 22.4347 155.939 22.5501C155.691 22.6632 155.484 22.8188 155.316 23.0182C155.151 23.2186 155.025 23.4571 154.938 23.7359C154.853 24.0125 154.811 24.3093 154.811 24.6284C154.811 24.9778 154.851 25.3126 154.933 25.6329C155.015 25.9509 155.144 26.232 155.323 26.4738C155.5 26.7168 155.725 26.9094 155.996 27.0516C156.269 27.1916 156.593 27.261 156.968 27.261Z" fill="#05A6E8"/>
<mask id="mask5_13549_89921" style="mask-type:luminance" maskUnits="userSpaceOnUse" x="165" y="19" width="5" height="12">
<path d="M165.336 19.0703H169.334V30.9625H165.336V19.0703Z" fill="white"/>
</mask>
<g mask="url(#mask5_13549_89921)">
<path d="M165.49 15.125H169.164V18.0678H165.49V15.125ZM165.445 19.4866H169.205V30.736H165.445V19.4866Z" fill="#05A6E8"/>
</g>
<path d="M171.16 25.1099C171.16 24.3552 171.296 23.624 171.57 22.9163C171.843 22.2085 172.244 21.5837 172.776 21.0417C173.307 20.4986 173.961 20.0619 174.735 19.7316C175.51 19.4001 176.401 19.2344 177.407 19.2344C178.173 19.2344 178.836 19.324 179.394 19.502C179.953 19.6789 180.417 19.8738 180.785 20.0854C181.217 20.334 181.577 20.6151 181.868 20.9275L180.273 23.4683C180.061 23.269 179.818 23.0865 179.544 22.923C179.309 22.7875 179.03 22.6632 178.708 22.5501C178.386 22.4347 178.034 22.3776 177.651 22.3776C177.204 22.3776 176.812 22.456 176.476 22.6139C176.141 22.7718 175.862 22.9767 175.638 23.2287C175.416 23.4795 175.248 23.7662 175.139 24.0864C175.029 24.4056 174.974 24.7314 174.974 25.0651C174.974 25.4011 175.03 25.7348 175.142 26.0662C175.256 26.3954 175.43 26.6944 175.663 26.9621C175.897 27.2286 176.19 27.4447 176.54 27.6127C176.89 27.7784 177.303 27.8613 177.778 27.8613C178.167 27.8613 178.547 27.7918 178.915 27.6541C179.283 27.513 179.612 27.3585 179.902 27.1883C180.243 26.9889 180.558 26.7605 180.849 26.5063L182.221 29.1389C181.873 29.4883 181.462 29.8019 180.988 30.0796C180.583 30.3136 180.082 30.5275 179.484 30.7201C178.886 30.9116 178.194 31.0067 177.407 31.0067C176.409 31.0067 175.522 30.8455 174.745 30.523C173.97 30.1971 173.317 29.7638 172.786 29.2184C172.254 28.6753 171.85 28.0483 171.573 27.3383C171.297 26.6261 171.16 25.8837 171.16 25.1099Z" fill="#05A6E8"/>
<path d="M188.105 27.3797C188.105 26.8333 188.225 26.363 188.465 25.9677C188.706 25.5724 189.019 25.2398 189.405 24.9699C189.792 24.7001 190.226 24.4851 190.707 24.3249C191.19 24.1659 191.67 24.0416 192.151 23.9521C192.634 23.8636 193.093 23.8054 193.527 23.7774C193.963 23.7471 194.325 23.7326 194.615 23.7326H194.765V23.5321C194.765 23.2959 194.722 23.0977 194.638 22.9386C194.553 22.7796 194.436 22.652 194.285 22.5557C194.137 22.4594 193.963 22.3888 193.762 22.3463C193.56 22.3037 193.343 22.2824 193.107 22.2824C192.747 22.2824 192.39 22.3396 192.034 22.4538C191.68 22.5669 191.358 22.6912 191.068 22.8267C190.727 22.9823 190.402 23.1604 190.091 23.3597L188.786 20.6946C189.166 20.4247 189.601 20.1828 190.091 19.9678C190.509 19.7831 191.006 19.6151 191.577 19.4639C192.15 19.3105 192.785 19.2344 193.479 19.2344C194.266 19.2344 194.973 19.3396 195.6 19.5502C196.227 19.7584 196.756 20.0597 197.187 20.4549C197.62 20.8491 197.95 21.3284 198.179 21.8928C198.409 22.4594 198.525 23.101 198.525 23.8188V30.7391H195.095V30.0672C195.095 29.9765 195.096 29.8881 195.098 29.8019C195.103 29.7156 195.108 29.6395 195.114 29.5757C195.123 29.4995 195.131 29.429 195.136 29.3629H195.095C194.911 29.6776 194.673 29.9508 194.384 30.1848C194.137 30.3909 193.81 30.579 193.406 30.7492C193.001 30.9216 192.506 31.0067 191.919 31.0067C191.394 31.0067 190.901 30.9228 190.437 30.7559C189.973 30.5879 189.568 30.3461 189.223 30.0314C188.881 29.7156 188.609 29.3327 188.408 28.8836C188.206 28.4357 188.105 27.934 188.105 27.3797ZM191.898 27.1782C191.898 27.4402 191.981 27.6619 192.146 27.8445C192.312 28.0259 192.583 28.1154 192.958 28.1154C193.2 28.1154 193.432 28.055 193.654 27.934C193.878 27.8131 194.074 27.6563 194.244 27.466C194.413 27.2745 194.549 27.0617 194.651 26.8277C194.754 26.5925 194.806 26.3607 194.806 26.1334V25.8871H194.457C194.16 25.8871 193.86 25.9117 193.556 25.9576C193.25 26.0024 192.974 26.0774 192.729 26.1804C192.486 26.2823 192.286 26.4156 192.129 26.5791C191.975 26.7437 191.898 26.943 191.898 27.1782Z" fill="#05A6E8"/>
<mask id="mask6_13549_89921" style="mask-type:luminance" maskUnits="userSpaceOnUse" x="200" y="19" width="13" height="13">
<path d="M200.176 19.0703H212.455V31.2492H200.176V19.0703Z" fill="white"/>
</mask>
<g mask="url(#mask6_13549_89921)">
<path d="M200.375 25.1068C200.375 24.2188 200.502 23.4126 200.756 22.687C201.012 21.9602 201.367 21.341 201.821 20.8281C202.272 20.3164 202.812 19.9222 203.44 19.6456C204.068 19.3701 204.754 19.2313 205.497 19.2313C206.063 19.2313 206.532 19.2772 206.907 19.3679C207.284 19.4597 207.585 19.5627 207.813 19.6781C208.075 19.8046 208.28 19.9547 208.429 20.1271H208.47C208.463 20.0823 208.46 20.033 208.46 19.9771C208.454 19.9345 208.451 19.8841 208.451 19.8248C208.451 19.7632 208.451 19.696 208.451 19.6232V15.125H212.22V30.736H208.695V29.9902C208.695 29.9063 208.695 29.8267 208.695 29.7517C208.695 29.6745 208.698 29.6095 208.705 29.5535C208.705 29.4819 208.709 29.4169 208.714 29.3598H208.673C208.474 29.6745 208.222 29.9477 207.918 30.1817C207.657 30.3878 207.321 30.5759 206.91 30.7461C206.5 30.9185 206.007 31.0036 205.434 31.0036C204.667 31.0036 203.975 30.8603 203.354 30.5736C202.735 30.2859 202.205 29.8816 201.763 29.362C201.32 28.8424 200.978 28.221 200.738 27.5009C200.497 26.7787 200.375 25.9803 200.375 25.1068ZM204.17 25.1068C204.17 25.5256 204.222 25.9064 204.329 26.2479C204.434 26.5883 204.585 26.8795 204.78 27.1213C204.974 27.3632 205.206 27.5513 205.475 27.6823C205.744 27.8122 206.041 27.8772 206.367 27.8772C206.651 27.8772 206.924 27.8246 207.184 27.7171C207.446 27.6118 207.678 27.4461 207.88 27.2232C208.083 26.9982 208.246 26.7104 208.368 26.3599C208.493 26.0071 208.556 25.5895 208.556 25.1068C208.556 24.7642 208.511 24.4338 208.422 24.1147C208.335 23.7944 208.201 23.5089 208.019 23.258C207.838 23.005 207.61 22.8012 207.333 22.6489C207.058 22.4955 206.736 22.4193 206.367 22.4193C206.07 22.4193 205.789 22.4787 205.523 22.594C205.257 22.7116 205.024 22.884 204.821 23.1114C204.619 23.3387 204.461 23.6197 204.345 23.9557C204.228 24.2894 204.17 24.6735 204.17 25.1068Z" fill="#05A6E8"/>
</g>
<path d="M215.004 19.4897H218.618V20.4717C218.618 20.5692 218.616 20.6599 218.611 20.7427C218.607 20.8234 218.602 20.895 218.596 20.9589C218.589 21.0384 218.581 21.1089 218.573 21.1727H218.618C218.745 20.9745 218.907 20.7629 219.103 20.5356C219.302 20.3083 219.538 20.0977 219.812 19.9074C220.085 19.7136 220.397 19.5535 220.752 19.4259C221.105 19.2982 221.501 19.2344 221.942 19.2344C222.658 19.2344 223.284 19.39 223.823 19.7024C224.36 20.0149 224.776 20.4919 225.073 21.1313H225.118C225.266 20.8973 225.459 20.6677 225.696 20.4393C225.933 20.2097 226.205 20.007 226.512 19.8301C226.821 19.6521 227.16 19.5087 227.528 19.4001C227.896 19.2904 228.29 19.2344 228.709 19.2344C229.218 19.2344 229.692 19.3094 230.135 19.4572C230.58 19.6061 230.964 19.8469 231.288 20.1784C231.614 20.5076 231.871 20.9409 232.06 21.4784C232.248 22.0137 232.342 22.6699 232.342 23.4459V30.7391H228.579V24.0741C228.579 23.8681 228.567 23.6777 228.541 23.503C228.518 23.3295 228.474 23.1805 228.412 23.0562C228.348 22.9319 228.259 22.8334 228.144 22.7628C228.031 22.6912 227.887 22.6553 227.709 22.6553C227.412 22.6553 227.149 22.708 226.919 22.811C226.687 22.9129 226.487 23.0596 226.318 23.2477C226.148 23.4381 226.009 23.662 225.9 23.9207C225.789 24.1805 225.706 24.466 225.649 24.7785C225.6 24.9778 225.571 25.1894 225.563 25.4123C225.556 25.6362 225.553 25.8613 225.553 26.0886V30.7391H221.794V24.0741C221.794 23.8681 221.78 23.6777 221.755 23.503C221.73 23.3295 221.685 23.1805 221.622 23.0562C221.558 22.9319 221.469 22.8334 221.355 22.7628C221.243 22.6912 221.099 22.6553 220.924 22.6553C220.631 22.6553 220.371 22.7057 220.145 22.8043C219.919 22.9051 219.721 23.0439 219.555 23.222C219.39 23.3989 219.252 23.6139 219.142 23.8658C219.032 24.12 218.945 24.3944 218.881 24.6922C218.832 24.8983 218.8 25.1222 218.786 25.3652C218.771 25.6071 218.764 25.849 218.764 26.0886V30.7391H215.004V19.4897Z" fill="#05A6E8"/>
<mask id="mask7_13549_89921" style="mask-type:luminance" maskUnits="userSpaceOnUse" x="234" y="19" width="6" height="12">
<path d="M234.727 19.0703H239.01V30.9625H234.727V19.0703Z" fill="white"/>
</mask>
<g mask="url(#mask7_13549_89921)">
<path d="M235.021 15.125H238.695V18.0678H235.021V15.125ZM234.977 19.4866H238.737V30.736H234.977V19.4866Z" fill="#05A6E8"/>
</g>
<path d="M241.52 19.4897H245.132V20.4717C245.132 20.5692 245.13 20.6599 245.127 20.7427C245.121 20.8234 245.117 20.895 245.11 20.9589C245.105 21.0384 245.097 21.1089 245.089 21.1727H245.132C245.26 20.9544 245.426 20.7315 245.631 20.5031C245.836 20.2758 246.084 20.0675 246.375 19.8783C246.664 19.689 247 19.5356 247.381 19.4158C247.764 19.2948 248.204 19.2344 248.702 19.2344C249.267 19.2344 249.795 19.306 250.284 19.4483C250.772 19.5882 251.197 19.8223 251.557 20.1492C251.919 20.4773 252.203 20.9107 252.411 21.4527C252.621 21.9935 252.725 22.6576 252.725 23.4459V30.7391H248.956V24.1503C248.956 23.6172 248.855 23.2343 248.652 23.0025C248.45 22.7718 248.141 22.6553 247.724 22.6553C247.426 22.6553 247.157 22.6945 246.921 22.7729C246.683 22.8513 246.474 22.9622 246.295 23.1044C246.115 23.2466 245.959 23.419 245.829 23.6172C245.697 23.8154 245.589 24.0349 245.504 24.2779C245.353 24.718 245.279 25.2118 245.279 25.7605V30.7391H241.52V19.4897Z" fill="#05A6E8"/>
<path d="M188.105 27.3797C188.105 26.8333 188.225 26.363 188.465 25.9677C188.706 25.5724 189.019 25.2398 189.405 24.9699C189.792 24.7001 190.226 24.4851 190.707 24.3249C191.19 24.1659 191.67 24.0416 192.151 23.9521C192.634 23.8636 193.093 23.8054 193.527 23.7774C193.963 23.7471 194.325 23.7326 194.615 23.7326H194.765V23.5321C194.765 23.2959 194.722 23.0977 194.638 22.9386C194.553 22.7796 194.436 22.652 194.285 22.5557C194.137 22.4594 193.963 22.3888 193.762 22.3463C193.56 22.3037 193.343 22.2824 193.107 22.2824C192.747 22.2824 192.39 22.3396 192.034 22.4538C191.68 22.5669 191.358 22.6912 191.068 22.8267C190.727 22.9823 190.402 23.1604 190.091 23.3597L188.786 20.6946C189.166 20.4247 189.601 20.1828 190.091 19.9678C190.509 19.7831 191.006 19.6151 191.577 19.4639C192.15 19.3105 192.785 19.2344 193.479 19.2344C194.266 19.2344 194.973 19.3396 195.6 19.5502C196.227 19.7584 196.756 20.0597 197.187 20.4549C197.62 20.8491 197.95 21.3284 198.179 21.8928C198.409 22.4594 198.525 23.101 198.525 23.8188V30.7391H195.095V30.0672C195.095 29.9765 195.096 29.8881 195.098 29.8019C195.103 29.7156 195.108 29.6395 195.114 29.5757C195.123 29.4995 195.131 29.429 195.136 29.3629H195.095C194.911 29.6776 194.673 29.9508 194.384 30.1848C194.137 30.3909 193.81 30.579 193.406 30.7492C193.001 30.9216 192.506 31.0067 191.919 31.0067C191.394 31.0067 190.901 30.9228 190.437 30.7559C189.973 30.5879 189.568 30.3461 189.223 30.0314C188.881 29.7156 188.609 29.3327 188.408 28.8836C188.206 28.4357 188.105 27.934 188.105 27.3797ZM191.898 27.1782C191.898 27.4402 191.981 27.6619 192.146 27.8445C192.312 28.0259 192.583 28.1154 192.958 28.1154C193.2 28.1154 193.432 28.055 193.654 27.934C193.878 27.8131 194.074 27.6563 194.244 27.466C194.413 27.2745 194.549 27.0617 194.651 26.8277C194.754 26.5925 194.806 26.3607 194.806 26.1334V25.8871H194.457C194.16 25.8871 193.86 25.9117 193.556 25.9576C193.25 26.0024 192.974 26.0774 192.729 26.1804C192.486 26.2823 192.286 26.4156 192.129 26.5791C191.975 26.7437 191.898 26.943 191.898 27.1782Z" fill="#05A6E8"/>
<path d="M200.375 25.1068C200.375 24.2188 200.502 23.4126 200.756 22.687C201.012 21.9602 201.367 21.341 201.821 20.8281C202.272 20.3164 202.812 19.9222 203.44 19.6456C204.068 19.3701 204.754 19.2313 205.497 19.2313C206.063 19.2313 206.532 19.2772 206.907 19.3679C207.284 19.4597 207.585 19.5627 207.813 19.6781C208.075 19.8046 208.28 19.9547 208.429 20.1271H208.47C208.463 20.0823 208.46 20.033 208.46 19.9771C208.454 19.9345 208.451 19.8841 208.451 19.8248C208.451 19.7632 208.451 19.696 208.451 19.6232V15.125H212.22V30.736H208.695V29.9902C208.695 29.9063 208.695 29.8267 208.695 29.7517C208.695 29.6745 208.698 29.6095 208.705 29.5535C208.705 29.4819 208.709 29.4169 208.714 29.3598H208.673C208.474 29.6745 208.222 29.9477 207.918 30.1817C207.657 30.3878 207.321 30.5759 206.91 30.7461C206.5 30.9185 206.007 31.0036 205.434 31.0036C204.667 31.0036 203.975 30.8603 203.354 30.5736C202.735 30.2859 202.205 29.8816 201.763 29.362C201.32 28.8424 200.978 28.221 200.738 27.5009C200.497 26.7787 200.375 25.9803 200.375 25.1068ZM204.17 25.1068C204.17 25.5256 204.222 25.9064 204.329 26.2479C204.434 26.5883 204.585 26.8795 204.78 27.1213C204.974 27.3632 205.206 27.5513 205.475 27.6823C205.744 27.8122 206.041 27.8772 206.367 27.8772C206.651 27.8772 206.924 27.8246 207.184 27.7171C207.446 27.6118 207.678 27.4461 207.88 27.2232C208.083 26.9982 208.246 26.7104 208.368 26.3599C208.493 26.0071 208.556 25.5895 208.556 25.1068C208.556 24.7642 208.511 24.4338 208.422 24.1147C208.335 23.7944 208.201 23.5089 208.019 23.258C207.838 23.005 207.61 22.8012 207.333 22.6489C207.058 22.4955 206.736 22.4193 206.367 22.4193C206.07 22.4193 205.789 22.4787 205.523 22.594C205.257 22.7116 205.024 22.884 204.821 23.1114C204.619 23.3387 204.461 23.6197 204.345 23.9557C204.228 24.2894 204.17 24.6735 204.17 25.1068Z" fill="#05A6E8"/>
<path d="M215.004 19.4897H218.618V20.4717C218.618 20.5692 218.616 20.6599 218.611 20.7427C218.607 20.8234 218.602 20.895 218.596 20.9589C218.589 21.0384 218.581 21.1089 218.573 21.1727H218.618C218.745 20.9745 218.907 20.7629 219.103 20.5356C219.302 20.3083 219.538 20.0977 219.812 19.9074C220.085 19.7136 220.397 19.5535 220.752 19.4259C221.105 19.2982 221.501 19.2344 221.942 19.2344C222.658 19.2344 223.284 19.39 223.823 19.7024C224.36 20.0149 224.776 20.4919 225.073 21.1313H225.118C225.266 20.8973 225.459 20.6677 225.696 20.4393C225.933 20.2097 226.205 20.007 226.512 19.8301C226.821 19.6521 227.16 19.5087 227.528 19.4001C227.896 19.2904 228.29 19.2344 228.709 19.2344C229.218 19.2344 229.692 19.3094 230.135 19.4572C230.58 19.6061 230.964 19.8469 231.288 20.1784C231.614 20.5076 231.871 20.9409 232.06 21.4784C232.248 22.0137 232.342 22.6699 232.342 23.4459V30.7391H228.579V24.0741C228.579 23.8681 228.567 23.6777 228.541 23.503C228.518 23.3295 228.474 23.1805 228.412 23.0562C228.348 22.9319 228.259 22.8334 228.144 22.7628C228.031 22.6912 227.887 22.6553 227.709 22.6553C227.412 22.6553 227.149 22.708 226.919 22.811C226.687 22.9129 226.487 23.0596 226.318 23.2477C226.148 23.4381 226.009 23.662 225.9 23.9207C225.789 24.1805 225.706 24.466 225.649 24.7785C225.6 24.9778 225.571 25.1894 225.563 25.4123C225.556 25.6362 225.553 25.8613 225.553 26.0886V30.7391H221.794V24.0741C221.794 23.8681 221.78 23.6777 221.755 23.503C221.73 23.3295 221.685 23.1805 221.622 23.0562C221.558 22.9319 221.469 22.8334 221.355 22.7628C221.243 22.6912 221.099 22.6553 220.924 22.6553C220.631 22.6553 220.371 22.7057 220.145 22.8043C219.919 22.9051 219.721 23.0439 219.555 23.222C219.39 23.3989 219.252 23.6139 219.142 23.8658C219.032 24.12 218.945 24.3944 218.881 24.6922C218.832 24.8983 218.8 25.1222 218.786 25.3652C218.771 25.6071 218.764 25.849 218.764 26.0886V30.7391H215.004V19.4897Z" fill="#05A6E8"/>
<path d="M235.021 15.125H238.695V18.0678H235.021V15.125ZM234.977 19.4866H238.737V30.736H234.977V19.4866Z" fill="#05A6E8"/>
<path d="M241.52 19.4897H245.132V20.4717C245.132 20.5692 245.13 20.6599 245.127 20.7427C245.121 20.8234 245.117 20.895 245.11 20.9589C245.105 21.0384 245.097 21.1089 245.089 21.1727H245.132C245.26 20.9544 245.426 20.7315 245.631 20.5031C245.836 20.2758 246.084 20.0675 246.375 19.8783C246.664 19.689 247 19.5356 247.381 19.4158C247.764 19.2948 248.204 19.2344 248.702 19.2344C249.267 19.2344 249.795 19.306 250.284 19.4483C250.772 19.5882 251.197 19.8223 251.557 20.1492C251.919 20.4773 252.203 20.9107 252.411 21.4527C252.621 21.9935 252.725 22.6576 252.725 23.4459V30.7391H248.956V24.1503C248.956 23.6172 248.855 23.2343 248.652 23.0025C248.45 22.7718 248.141 22.6553 247.724 22.6553C247.426 22.6553 247.157 22.6945 246.921 22.7729C246.683 22.8513 246.474 22.9622 246.295 23.1044C246.115 23.2466 245.959 23.419 245.829 23.6172C245.697 23.8154 245.589 24.0349 245.504 24.2779C245.353 24.718 245.279 25.2118 245.279 25.7605V30.7391H241.52V19.4897Z" fill="#05A6E8"/>
<mask id="mask8_13549_89921" style="mask-type:luminance" maskUnits="userSpaceOnUse" x="111" y="13" width="3" height="22">
<path d="M111.426 13.1016H113.139V34.1716H111.426V13.1016Z" fill="white"/>
</mask>
<g mask="url(#mask8_13549_89921)">
<path d="M113.134 13.1016V34.1313H111.523V13.1016H113.134Z" fill="#D9D9D9"/>
</g>
<defs>
<linearGradient id="paint0_linear_13549_89921" x1="51.4102" y1="3.01631" x2="95.7109" y2="47.223" gradientUnits="userSpaceOnUse">
<stop stop-color="#662D91"/>
<stop offset="0.0625" stop-color="#662D91"/>
<stop offset="0.09375" stop-color="#662D91"/>
<stop offset="0.125" stop-color="#652E92"/>
<stop offset="0.15625" stop-color="#642F93"/>
<stop offset="0.1875" stop-color="#633093"/>
<stop offset="0.203125" stop-color="#623194"/>
<stop offset="0.210938" stop-color="#623194"/>
<stop offset="0.21875" stop-color="#613294"/>
<stop offset="0.22406" stop-color="#613295"/>
<stop offset="0.226563" stop-color="#613295"/>
<stop offset="0.234375" stop-color="#603395"/>
<stop offset="0.242187" stop-color="#603396"/>
<stop offset="0.25" stop-color="#5F3496"/>
<stop offset="0.257812" stop-color="#5F3596"/>
<stop offset="0.265625" stop-color="#5E3597"/>
<stop offset="0.273438" stop-color="#5E3697"/>
<stop offset="0.28125" stop-color="#5D3698"/>
<stop offset="0.289062" stop-color="#5D3798"/>
<stop offset="0.296875" stop-color="#5C3898"/>
<stop offset="0.304687" stop-color="#5C3899"/>
<stop offset="0.3125" stop-color="#5B3999"/>
<stop offset="0.320312" stop-color="#5B399A"/>
<stop offset="0.328125" stop-color="#5A3A9A"/>
<stop offset="0.335937" stop-color="#5A3B9B"/>
<stop offset="0.34375" stop-color="#593B9B"/>
<stop offset="0.351562" stop-color="#593C9B"/>
<stop offset="0.359375" stop-color="#583D9C"/>
<stop offset="0.367187" stop-color="#583D9C"/>
<stop offset="0.371094" stop-color="#573E9D"/>
<stop offset="0.375" stop-color="#563F9D"/>
<stop offset="0.378906" stop-color="#563F9E"/>
<stop offset="0.382812" stop-color="#56409E"/>
<stop offset="0.386719" stop-color="#55419F"/>
<stop offset="0.390625" stop-color="#55419F"/>
<stop offset="0.394531" stop-color="#54429F"/>
<stop offset="0.398437" stop-color="#5442A0"/>
<stop offset="0.402344" stop-color="#5443A0"/>
<stop offset="0.40625" stop-color="#5343A1"/>
<stop offset="0.410156" stop-color="#5344A1"/>
<stop offset="0.414062" stop-color="#5244A1"/>
<stop offset="0.417969" stop-color="#5245A2"/>
<stop offset="0.421875" stop-color="#5245A2"/>
<stop offset="0.425781" stop-color="#5146A2"/>
<stop offset="0.429687" stop-color="#5146A3"/>
<stop offset="0.433594" stop-color="#5047A3"/>
<stop offset="0.4375" stop-color="#5048A4"/>
<stop offset="0.441406" stop-color="#5048A4"/>
<stop offset="0.445312" stop-color="#4F49A4"/>
<stop offset="0.449219" stop-color="#4F49A5"/>
<stop offset="0.453125" stop-color="#4E4AA5"/>
<stop offset="0.457031" stop-color="#4E4AA6"/>
<stop offset="0.460937" stop-color="#4D4BA6"/>
<stop offset="0.464844" stop-color="#4D4BA6"/>
<stop offset="0.46875" stop-color="#4D4CA7"/>
<stop offset="0.472656" stop-color="#4C4CA7"/>
<stop offset="0.476562" stop-color="#4C4DA7"/>
<stop offset="0.480469" stop-color="#4B4DA8"/>
<stop offset="0.484375" stop-color="#4B4EA8"/>
<stop offset="0.488281" stop-color="#4B4FA9"/>
<stop offset="0.492187" stop-color="#4A4FA9"/>
<stop offset="0.496094" stop-color="#4A50A9"/>
<stop offset="0.5" stop-color="#4950AA"/>
<stop offset="0.503906" stop-color="#4951AA"/>
<stop offset="0.507812" stop-color="#4951AA"/>
<stop offset="0.511719" stop-color="#4852AB"/>
<stop offset="0.515625" stop-color="#4852AB"/>
<stop offset="0.519531" stop-color="#4753AC"/>
<stop offset="0.523437" stop-color="#4654AC"/>
<stop offset="0.527344" stop-color="#4655AD"/>
<stop offset="0.53125" stop-color="#4555AD"/>
<stop offset="0.535156" stop-color="#4556AE"/>
<stop offset="0.539062" stop-color="#4457AF"/>
<stop offset="0.542969" stop-color="#4458AF"/>
<stop offset="0.546875" stop-color="#4358B0"/>
<stop offset="0.550781" stop-color="#4259B0"/>
<stop offset="0.554687" stop-color="#425AB1"/>
<stop offset="0.558594" stop-color="#415AB1"/>
<stop offset="0.5625" stop-color="#415BB2"/>
<stop offset="0.566406" stop-color="#405CB2"/>
<stop offset="0.570312" stop-color="#3F5DB3"/>
<stop offset="0.574219" stop-color="#3F5DB3"/>
<stop offset="0.578125" stop-color="#3E5EB4"/>
<stop offset="0.582031" stop-color="#3E5FB4"/>
<stop offset="0.585937" stop-color="#3D60B5"/>
<stop offset="0.589844" stop-color="#3D60B5"/>
<stop offset="0.59375" stop-color="#3C61B6"/>
<stop offset="0.597656" stop-color="#3B62B7"/>
<stop offset="0.601562" stop-color="#3B63B7"/>
<stop offset="0.605469" stop-color="#3A63B8"/>
<stop offset="0.609375" stop-color="#3A64B8"/>
<stop offset="0.613281" stop-color="#3965B9"/>
<stop offset="0.617187" stop-color="#3866B9"/>
<stop offset="0.621094" stop-color="#3866BA"/>
<stop offset="0.625" stop-color="#3767BA"/>
<stop offset="0.628906" stop-color="#3768BB"/>
<stop offset="0.632812" stop-color="#3668BB"/>
<stop offset="0.636719" stop-color="#3669BC"/>
<stop offset="0.640625" stop-color="#356ABC"/>
<stop offset="0.644531" stop-color="#346BBD"/>
<stop offset="0.648438" stop-color="#346BBD"/>
<stop offset="0.652344" stop-color="#336CBE"/>
<stop offset="0.65625" stop-color="#336DBF"/>
<stop offset="0.660156" stop-color="#326EBF"/>
<stop offset="0.664062" stop-color="#316EC0"/>
<stop offset="0.667969" stop-color="#316FC0"/>
<stop offset="0.671875" stop-color="#3070C1"/>
<stop offset="0.675781" stop-color="#2F71C2"/>
<stop offset="0.679688" stop-color="#2F72C2"/>
<stop offset="0.683594" stop-color="#2E73C3"/>
<stop offset="0.6875" stop-color="#2D74C4"/>
<stop offset="0.691406" stop-color="#2C75C4"/>
<stop offset="0.695312" stop-color="#2C76C5"/>
<stop offset="0.699219" stop-color="#2B77C6"/>
<stop offset="0.703125" stop-color="#2A78C6"/>
<stop offset="0.707031" stop-color="#2979C7"/>
<stop offset="0.710937" stop-color="#2979C8"/>
<stop offset="0.714844" stop-color="#287AC8"/>
<stop offset="0.71875" stop-color="#277BC9"/>
<stop offset="0.722656" stop-color="#267CCA"/>
<stop offset="0.726562" stop-color="#267DCA"/>
<stop offset="0.730469" stop-color="#257ECB"/>
<stop offset="0.734375" stop-color="#247FCC"/>
<stop offset="0.738281" stop-color="#2380CD"/>
<stop offset="0.742187" stop-color="#2381CD"/>
<stop offset="0.746094" stop-color="#2282CE"/>
<stop offset="0.75" stop-color="#2183CF"/>
<stop offset="0.753906" stop-color="#2184CF"/>
<stop offset="0.757812" stop-color="#2085D0"/>
<stop offset="0.761719" stop-color="#1F86D1"/>
<stop offset="0.765625" stop-color="#1E87D1"/>
<stop offset="0.769531" stop-color="#1E88D2"/>
<stop offset="0.773437" stop-color="#1D89D3"/>
<stop offset="0.777344" stop-color="#1C89D3"/>
<stop offset="0.78125" stop-color="#1B8AD4"/>
<stop offset="0.785156" stop-color="#1B8BD5"/>
<stop offset="0.789062" stop-color="#1A8CD6"/>
<stop offset="0.792969" stop-color="#198DD6"/>
<stop offset="0.796875" stop-color="#188ED7"/>
<stop offset="0.800781" stop-color="#188FD8"/>
<stop offset="0.804687" stop-color="#1790D8"/>
<stop offset="0.808594" stop-color="#1691D9"/>
<stop offset="0.8125" stop-color="#1592DA"/>
<stop offset="0.816406" stop-color="#1593DA"/>
<stop offset="0.820312" stop-color="#1494DB"/>
<stop offset="0.824219" stop-color="#1395DC"/>
<stop offset="0.828125" stop-color="#1296DD"/>
<stop offset="0.832031" stop-color="#1197DD"/>
<stop offset="0.835937" stop-color="#1198DE"/>
<stop offset="0.839844" stop-color="#1099DF"/>
<stop offset="0.84375" stop-color="#0F9AE0"/>
<stop offset="0.847656" stop-color="#0E9BE1"/>
<stop offset="0.851562" stop-color="#0D9DE1"/>
<stop offset="0.855469" stop-color="#0C9EE2"/>
<stop offset="0.859375" stop-color="#0C9FE3"/>
<stop offset="0.863281" stop-color="#0BA0E4"/>
<stop offset="0.867188" stop-color="#0AA1E4"/>
<stop offset="0.871094" stop-color="#09A2E5"/>
<stop offset="0.875" stop-color="#08A3E6"/>
<stop offset="0.878906" stop-color="#07A4E7"/>
<stop offset="0.882812" stop-color="#07A5E8"/>
<stop offset="0.886719" stop-color="#06A6E8"/>
<stop offset="0.890625" stop-color="#05A7E9"/>
<stop offset="0.894531" stop-color="#04A8EA"/>
<stop offset="0.898437" stop-color="#03AAEB"/>
<stop offset="0.902344" stop-color="#02ABEC"/>
<stop offset="0.90625" stop-color="#02ACEC"/>
<stop offset="0.910156" stop-color="#01ADED"/>
<stop offset="0.914062" stop-color="#00AEEE"/>
<stop offset="0.921875" stop-color="#00AEEE"/>
<stop offset="0.9375" stop-color="#00AEEE"/>
<stop offset="1" stop-color="#00AEEE"/>
</linearGradient>
<linearGradient id="paint1_linear_13549_89921" x1="4.3717" y1="7.43806" x2="30.6936" y2="33.7041" gradientUnits="userSpaceOnUse">
<stop stop-color="#EC008C"/>
<stop offset="0.25" stop-color="#EC008C"/>
<stop offset="0.253906" stop-color="#EB008C"/>
<stop offset="0.257812" stop-color="#EA018C"/>
<stop offset="0.261719" stop-color="#E9018C"/>
<stop offset="0.265625" stop-color="#E8018C"/>
<stop offset="0.269531" stop-color="#E7018C"/>
<stop offset="0.273438" stop-color="#E6028C"/>
<stop offset="0.277344" stop-color="#E5028C"/>
<stop offset="0.28125" stop-color="#E5028C"/>
<stop offset="0.285156" stop-color="#E4038C"/>
<stop offset="0.289062" stop-color="#E3038C"/>
<stop offset="0.292969" stop-color="#E2038C"/>
<stop offset="0.296875" stop-color="#E1048C"/>
<stop offset="0.300781" stop-color="#E0048C"/>
<stop offset="0.304687" stop-color="#DF048C"/>
<stop offset="0.308594" stop-color="#DE058D"/>
<stop offset="0.3125" stop-color="#DD058D"/>
<stop offset="0.316406" stop-color="#DC058D"/>
<stop offset="0.320312" stop-color="#DB068D"/>
<stop offset="0.324219" stop-color="#DA068D"/>
<stop offset="0.328125" stop-color="#D9068D"/>
<stop offset="0.332031" stop-color="#D8078D"/>
<stop offset="0.335937" stop-color="#D7078D"/>
<stop offset="0.339844" stop-color="#D6078D"/>
<stop offset="0.34375" stop-color="#D5088D"/>
<stop offset="0.347656" stop-color="#D4088D"/>
<stop offset="0.351562" stop-color="#D3088D"/>
<stop offset="0.355469" stop-color="#D2098D"/>
<stop offset="0.359375" stop-color="#D1098D"/>
<stop offset="0.363281" stop-color="#D0098D"/>
<stop offset="0.367187" stop-color="#CF0A8D"/>
<stop offset="0.371094" stop-color="#CE0A8D"/>
<stop offset="0.375" stop-color="#CD0A8D"/>
<stop offset="0.378906" stop-color="#CC0B8D"/>
<stop offset="0.382812" stop-color="#CB0B8D"/>
<stop offset="0.386719" stop-color="#CA0B8D"/>
<stop offset="0.390625" stop-color="#C90C8D"/>
<stop offset="0.394531" stop-color="#C80C8D"/>
<stop offset="0.398438" stop-color="#C70C8D"/>
<stop offset="0.402344" stop-color="#C60D8D"/>
<stop offset="0.40625" stop-color="#C50D8D"/>
<stop offset="0.410156" stop-color="#C40D8D"/>
<stop offset="0.414062" stop-color="#C30E8E"/>
<stop offset="0.417969" stop-color="#C20E8E"/>
<stop offset="0.421875" stop-color="#C10E8E"/>
<stop offset="0.425781" stop-color="#C00F8E"/>
<stop offset="0.429687" stop-color="#BF0F8E"/>
<stop offset="0.433594" stop-color="#BE0F8E"/>
<stop offset="0.4375" stop-color="#BD108E"/>
<stop offset="0.441406" stop-color="#BC108E"/>
<stop offset="0.445312" stop-color="#BC108E"/>
<stop offset="0.449219" stop-color="#BB118E"/>
<stop offset="0.453125" stop-color="#BA118E"/>
<stop offset="0.457031" stop-color="#B9118E"/>
<stop offset="0.460937" stop-color="#B8128E"/>
<stop offset="0.464844" stop-color="#B7128E"/>
<stop offset="0.46875" stop-color="#B6128E"/>
<stop offset="0.472656" stop-color="#B5138E"/>
<stop offset="0.476562" stop-color="#B4138E"/>
<stop offset="0.480469" stop-color="#B3138E"/>
<stop offset="0.484375" stop-color="#B2138E"/>
<stop offset="0.488281" stop-color="#B1148E"/>
<stop offset="0.492187" stop-color="#B0148E"/>
<stop offset="0.496094" stop-color="#AF148E"/>
<stop offset="0.5" stop-color="#AE158E"/>
<stop offset="0.503906" stop-color="#AD158E"/>
<stop offset="0.507812" stop-color="#AC158E"/>
<stop offset="0.511719" stop-color="#AB168E"/>
<stop offset="0.515625" stop-color="#AA168F"/>
<stop offset="0.519531" stop-color="#A9168F"/>
<stop offset="0.523438" stop-color="#A8178F"/>
<stop offset="0.527344" stop-color="#A7178F"/>
<stop offset="0.53125" stop-color="#A6178F"/>
<stop offset="0.535156" stop-color="#A5188F"/>
<stop offset="0.539062" stop-color="#A4188F"/>
<stop offset="0.542969" stop-color="#A3188F"/>
<stop offset="0.546875" stop-color="#A2198F"/>
<stop offset="0.550781" stop-color="#A1198F"/>
<stop offset="0.554688" stop-color="#A0198F"/>
<stop offset="0.558594" stop-color="#9F1A8F"/>
<stop offset="0.5625" stop-color="#9E1A8F"/>
<stop offset="0.566406" stop-color="#9D1A8F"/>
<stop offset="0.570312" stop-color="#9C1B8F"/>
<stop offset="0.574219" stop-color="#9B1B8F"/>
<stop offset="0.578125" stop-color="#9A1B8F"/>
<stop offset="0.582031" stop-color="#991C8F"/>
<stop offset="0.585937" stop-color="#981C8F"/>
<stop offset="0.589844" stop-color="#971C8F"/>
<stop offset="0.59375" stop-color="#961D8F"/>
<stop offset="0.597656" stop-color="#951D8F"/>
<stop offset="0.601562" stop-color="#941D8F"/>
<stop offset="0.605469" stop-color="#931E8F"/>
<stop offset="0.609375" stop-color="#921E8F"/>
<stop offset="0.613281" stop-color="#921E8F"/>
<stop offset="0.617188" stop-color="#911F8F"/>
<stop offset="0.621094" stop-color="#901F90"/>
<stop offset="0.625" stop-color="#8F1F90"/>
<stop offset="0.628906" stop-color="#8E2090"/>
<stop offset="0.632812" stop-color="#8D2090"/>
<stop offset="0.636719" stop-color="#8C2090"/>
<stop offset="0.640625" stop-color="#8B2190"/>
<stop offset="0.644531" stop-color="#8A2190"/>
<stop offset="0.648438" stop-color="#892190"/>
<stop offset="0.652344" stop-color="#882290"/>
<stop offset="0.65625" stop-color="#872290"/>
<stop offset="0.660156" stop-color="#862290"/>
<stop offset="0.664062" stop-color="#852390"/>
<stop offset="0.667969" stop-color="#842390"/>
<stop offset="0.671875" stop-color="#832390"/>
<stop offset="0.675781" stop-color="#822490"/>
<stop offset="0.679688" stop-color="#812490"/>
<stop offset="0.683594" stop-color="#802490"/>
<stop offset="0.6875" stop-color="#7F2590"/>
<stop offset="0.691406" stop-color="#7E2590"/>
<stop offset="0.695312" stop-color="#7D2590"/>
<stop offset="0.699219" stop-color="#7C2590"/>
<stop offset="0.703125" stop-color="#7B2690"/>
<stop offset="0.707031" stop-color="#7A2690"/>
<stop offset="0.710937" stop-color="#792690"/>
<stop offset="0.714844" stop-color="#782790"/>
<stop offset="0.71875" stop-color="#772790"/>
<stop offset="0.722656" stop-color="#762790"/>
<stop offset="0.726562" stop-color="#752891"/>
<stop offset="0.730469" stop-color="#742891"/>
<stop offset="0.734375" stop-color="#732891"/>
<stop offset="0.738281" stop-color="#722991"/>
<stop offset="0.742188" stop-color="#712991"/>
<stop offset="0.746094" stop-color="#702991"/>
<stop offset="0.75" stop-color="#6F2A91"/>
<stop offset="0.753906" stop-color="#6E2A91"/>
<stop offset="0.757812" stop-color="#6D2A91"/>
<stop offset="0.761719" stop-color="#6C2B91"/>
<stop offset="0.765625" stop-color="#6B2B91"/>
<stop offset="0.769531" stop-color="#6A2B91"/>
<stop offset="0.773438" stop-color="#692C91"/>
<stop offset="0.777344" stop-color="#692C91"/>
<stop offset="0.78125" stop-color="#682C91"/>
<stop offset="0.785156" stop-color="#672D91"/>
<stop offset="0.789063" stop-color="#662D91"/>
<stop offset="0.796875" stop-color="#662D91"/>
<stop offset="0.8125" stop-color="#662D91"/>
<stop offset="0.875" stop-color="#662D91"/>
<stop offset="1" stop-color="#662D91"/>
</linearGradient>
</defs>
</svg>
